<svg width="449" height="504" viewBox="0 0 449 504" fill="none" xmlns="http://www.w3.org/2000/svg">
<mask id="mask0_361_2229" style="mask-type:alpha" maskUnits="userSpaceOnUse" x="49" y="0" width="363" height="504">
<path d="M118.507 11.9914C161.184 -22.9128 262.917 26.1755 303.869 59.9306C592.69 306.091 223.044 529.629 110.965 501.62C-1.11485 473.61 65.1619 55.6217 118.507 11.9914Z" fill="#D9D9D9"/>
</mask>
<g mask="url(#mask0_361_2229)">
<rect x="9.83789" y="-34" width="411" height="549" fill="#A0E1FF"/>
<path fill-rule="evenodd" clip-rule="evenodd" d="M376.588 254.453C376.928 250.332 375.148 246.327 371.888 243.879C349.675 227.2 263.594 162.555 243.24 147.266C240.575 145.266 237.045 144.931 234.065 146.401C211.045 157.762 112.712 206.276 87.3811 218.775C83.6804 220.602 81.1979 224.292 80.8526 228.478C78.347 258.868 68.1007 383.126 64.8797 422.195C64.3409 428.723 69.0737 434.466 75.4565 435.029C122.673 439.196 300.731 454.91 348.032 459.084C351.106 459.355 354.159 458.365 356.519 456.332C358.877 454.299 360.348 451.39 360.606 448.246C363.838 409.073 374.099 284.62 376.588 254.453Z" fill="#333333"/>
<path fill-rule="evenodd" clip-rule="evenodd" d="M279.259 57.7633C279.789 55.5309 279.429 53.1739 278.255 51.214C277.085 49.252 275.196 47.8499 273.013 47.317C255.408 43.0038 214.337 32.9445 196.778 28.6441C192.246 27.534 187.692 30.3834 186.593 35.0127C182.553 52.0426 173.42 90.5288 169.369 107.599C168.839 109.831 169.201 112.187 170.373 114.15C171.545 116.11 173.432 117.511 175.617 118.048C193.219 122.358 234.293 132.417 251.851 136.717C256.382 137.827 260.936 134.978 262.036 130.349C266.075 113.319 275.208 74.8331 279.259 57.7633Z" fill="black"/>
<path d="M247.479 128.288H247.467C246.773 128.279 246.072 128.189 245.387 128.022L244.926 127.91C244.384 127.777 243.82 127.637 243.24 127.495C242.801 127.389 242.498 126.992 242.501 126.53C242.501 126.456 242.51 126.381 242.528 126.31C242.631 125.864 243.016 125.553 243.462 125.553C243.538 125.553 243.614 125.563 243.686 125.581L244.447 125.767C244.926 125.882 245.387 125.997 245.836 126.105C246.379 126.239 246.937 126.31 247.492 126.319C247.749 126.322 247.989 126.428 248.168 126.617C248.35 126.803 248.444 127.054 248.441 127.315C248.434 127.851 248.004 128.288 247.479 128.288ZM253.28 126.028C253.01 126.028 252.749 125.913 252.567 125.709C252.404 125.526 252.316 125.29 252.316 125.045C252.316 124.769 252.431 124.502 252.631 124.316C253.525 123.482 254.217 122.428 254.626 121.265C254.762 120.877 255.126 120.614 255.53 120.614C255.642 120.614 255.751 120.636 255.857 120.673C256.357 120.859 256.618 121.423 256.436 121.935C255.921 123.398 255.053 124.726 253.926 125.774C253.75 125.938 253.519 126.028 253.28 126.028ZM237.273 126.006C237.201 126.006 237.125 126 237.049 125.981C235.767 125.665 234.435 125.339 233.065 125.004H233.062C232.625 124.896 232.322 124.499 232.325 124.04C232.328 123.966 232.334 123.891 232.352 123.817C232.459 123.371 232.843 123.06 233.289 123.06C233.365 123.06 233.441 123.07 233.513 123.088L234.02 123.212C235.212 123.504 236.373 123.789 237.498 124.065C237.75 124.124 237.961 124.282 238.095 124.505C238.229 124.732 238.271 124.995 238.21 125.253C238.107 125.696 237.722 126.006 237.273 126.006ZM227.101 123.516C227.028 123.516 226.952 123.507 226.876 123.488L222.898 122.515H222.892C222.456 122.406 222.149 122.006 222.155 121.547C222.155 121.473 222.165 121.398 222.18 121.324C222.286 120.881 222.671 120.571 223.117 120.571C223.192 120.571 223.268 120.58 223.341 120.595L227.325 121.572C227.844 121.699 228.162 122.233 228.038 122.76C227.935 123.206 227.549 123.516 227.101 123.516ZM216.931 121.023C216.855 121.023 216.78 121.014 216.707 120.998C215.697 120.75 214.684 120.502 213.675 120.254L212.723 120.022C212.283 119.913 211.98 119.516 211.983 119.057C211.983 118.983 211.992 118.905 212.01 118.834C212.116 118.388 212.498 118.077 212.947 118.077C213.023 118.077 213.098 118.087 213.171 118.105C214.496 118.431 215.827 118.757 217.156 119.082C217.404 119.141 217.616 119.299 217.753 119.525C217.886 119.749 217.926 120.012 217.868 120.27C217.762 120.713 217.377 121.023 216.931 121.023ZM206.765 118.533C206.689 118.533 206.613 118.524 206.54 118.505C205.191 118.177 203.863 117.851 202.553 117.532C202.114 117.423 201.81 117.026 201.816 116.564C201.816 116.493 201.825 116.419 201.844 116.344C201.962 115.823 202.49 115.485 203.002 115.616L203.153 115.653C204.412 115.96 205.691 116.273 206.986 116.592C207.505 116.716 207.823 117.25 207.699 117.777C207.596 118.223 207.21 118.533 206.765 118.533ZM257.079 116.276C257.006 116.276 256.927 116.267 256.852 116.248C256.415 116.139 256.112 115.739 256.118 115.281C256.118 115.206 256.127 115.132 256.145 115.057L256.187 114.881C256.481 113.637 256.791 112.335 257.109 110.986C257.215 110.543 257.6 110.233 258.046 110.233C258.122 110.233 258.198 110.242 258.274 110.26C258.522 110.323 258.735 110.481 258.868 110.707C259.001 110.93 259.044 111.194 258.983 111.451C258.747 112.443 258.516 113.411 258.295 114.347L258.016 115.522C257.91 115.966 257.525 116.276 257.079 116.276ZM196.592 116.04C196.516 116.04 196.44 116.031 196.368 116.016C195.337 115.764 194.333 115.516 193.357 115.277L192.381 115.039C191.944 114.93 191.638 114.533 191.644 114.074C191.644 114 191.653 113.926 191.671 113.851C191.792 113.33 192.317 112.999 192.829 113.123L193.305 113.24C194.436 113.516 195.61 113.805 196.817 114.099C197.065 114.161 197.277 114.316 197.411 114.539C197.547 114.766 197.587 115.029 197.526 115.287C197.423 115.73 197.038 116.04 196.592 116.04ZM186.419 113.55C186.344 113.55 186.268 113.541 186.192 113.523L185.883 113.448C185.674 113.395 185.47 113.346 185.27 113.296C184.127 113.017 183.057 112.527 182.093 111.842C181.835 111.659 181.68 111.361 181.677 111.042C181.674 110.837 181.735 110.639 181.85 110.471C182.029 110.205 182.326 110.047 182.642 110.047C182.838 110.047 183.029 110.109 183.19 110.223C183.957 110.769 184.806 111.157 185.719 111.38C186.019 111.454 186.328 111.529 186.641 111.606C187.159 111.733 187.478 112.267 187.353 112.794C187.25 113.24 186.865 113.55 186.419 113.55ZM179.197 106.735C178.745 106.735 178.351 106.409 178.257 105.957C178.118 105.293 178.045 104.611 178.045 103.929C178.045 103.169 178.136 102.403 178.312 101.659C178.321 101.616 178.333 101.572 178.342 101.529C178.354 101.476 178.366 101.426 178.378 101.374C178.485 100.93 178.866 100.62 179.312 100.62C179.388 100.62 179.467 100.63 179.542 100.648C179.979 100.757 180.282 101.154 180.279 101.616C180.276 101.69 180.267 101.765 180.252 101.839C180.234 101.91 180.216 101.985 180.2 102.056L180.182 102.124C180.043 102.716 179.97 103.324 179.97 103.929C179.97 104.471 180.028 105.014 180.14 105.544C180.252 106.075 179.919 106.599 179.4 106.713C179.334 106.729 179.264 106.735 179.197 106.735ZM259.547 105.879C259.471 105.879 259.396 105.87 259.32 105.854C258.88 105.743 258.58 105.346 258.583 104.887C258.586 104.809 258.595 104.735 258.61 104.664C258.798 103.879 258.986 103.085 259.174 102.285C259.308 101.724 259.441 101.16 259.577 100.593C259.681 100.149 260.065 99.8391 260.511 99.8391C260.587 99.8391 260.666 99.8482 260.739 99.8669C260.99 99.9286 261.2 100.087 261.336 100.31C261.469 100.537 261.509 100.8 261.448 101.057L261.102 102.521C260.893 103.399 260.687 104.267 260.484 105.129C260.378 105.572 259.993 105.879 259.547 105.879ZM180.816 96.2668C180.74 96.2668 180.664 96.2574 180.589 96.2389C180.34 96.1768 180.128 96.0189 179.991 95.7956C179.858 95.5692 179.818 95.3058 179.879 95.0514L180.282 93.3553C180.464 92.5769 180.652 91.7862 180.847 90.977C180.95 90.5334 181.335 90.2267 181.78 90.2267C181.859 90.2267 181.935 90.2359 182.008 90.2545C182.447 90.363 182.75 90.7601 182.745 91.222C182.745 91.2931 182.735 91.3707 182.717 91.4422C182.544 92.1769 182.372 92.8993 182.205 93.6093L181.75 95.5134C181.647 95.9568 181.262 96.2668 180.816 96.2668ZM262.012 95.4917C261.936 95.4917 261.86 95.4822 261.785 95.4638C261.348 95.352 261.045 94.9555 261.048 94.4934C261.051 94.4188 261.06 94.3443 261.075 94.2732C261.4 92.918 261.721 91.5567 262.043 90.202C262.149 89.7584 262.531 89.4483 262.976 89.4483C263.052 89.4483 263.131 89.4576 263.207 89.476C263.722 89.6032 264.037 90.1369 263.913 90.6669C263.592 92.0218 263.27 93.3832 262.949 94.7383C262.843 95.1816 262.458 95.4917 262.012 95.4917ZM183.281 85.8732C183.209 85.8732 183.13 85.8639 183.054 85.8451C182.805 85.7833 182.593 85.6251 182.459 85.4017C182.326 85.1756 182.287 84.9119 182.347 84.6544C182.566 83.7306 182.787 82.794 183.011 81.8484L183.312 80.5832C183.418 80.1399 183.803 79.8298 184.248 79.8298C184.324 79.8298 184.4 79.8393 184.476 79.8577C184.912 79.9695 185.216 80.3662 185.21 80.8282C185.21 80.8997 185.2 80.9739 185.182 81.0483C184.858 82.4219 184.537 83.7833 184.218 85.1195C184.112 85.5633 183.727 85.8732 183.281 85.8732ZM264.48 85.0947C264.404 85.0947 264.326 85.0856 264.25 85.067C263.813 84.9585 263.51 84.5616 263.516 84.0995C263.516 84.0282 263.525 83.9508 263.543 83.8793C263.868 82.5028 264.192 81.1446 264.511 79.8081C264.614 79.3648 264.999 79.0547 265.444 79.0547C265.52 79.0547 265.596 79.0641 265.672 79.0824C266.187 79.2098 266.506 79.743 266.381 80.2731C266.063 81.6097 265.741 82.9679 265.414 84.3445C265.308 84.7881 264.926 85.0947 264.48 85.0947ZM185.749 75.4795C185.67 75.4795 185.595 75.47 185.522 75.4515C185.007 75.3213 184.688 74.788 184.812 74.2608L185.225 72.5243C185.41 71.7461 185.595 70.9678 185.78 70.1896C185.883 69.746 186.268 69.4359 186.714 69.4359C186.789 69.4359 186.865 69.4454 186.941 69.4638C187.381 69.5756 187.684 69.9726 187.678 70.4346C187.678 70.5089 187.669 70.5833 187.65 70.6547L187.18 72.6391C187.014 73.3367 186.85 74.0314 186.683 74.726C186.58 75.1694 186.195 75.4795 185.749 75.4795ZM266.945 74.7013C266.87 74.7013 266.794 74.6918 266.718 74.6734C266.278 74.5646 265.975 74.168 265.981 73.7059C265.981 73.6343 265.99 73.5569 266.008 73.4858C266.342 72.075 266.666 70.7135 266.976 69.4145C267.082 68.971 267.464 68.6609 267.91 68.6609C267.985 68.6609 268.064 68.6702 268.14 68.6886C268.389 68.7507 268.601 68.9092 268.734 69.1323C268.868 69.3585 268.907 69.6222 268.846 69.8762C268.537 71.1786 268.216 72.5401 267.879 73.9509C267.776 74.3912 267.391 74.7013 266.945 74.7013ZM188.215 65.0889C188.139 65.0889 188.063 65.0794 187.987 65.0611C187.471 64.9339 187.153 64.4007 187.278 63.8704C187.538 62.7728 187.796 61.6841 188.051 60.6112L188.245 59.8022C188.348 59.3585 188.733 59.0485 189.179 59.0485C189.254 59.0485 189.333 59.0579 189.406 59.0764C189.846 59.1851 190.149 59.5821 190.143 60.0437C190.143 60.1183 190.134 60.1928 190.115 60.264C189.946 60.9773 189.776 61.6965 189.603 62.422C189.454 63.0547 189.303 63.6935 189.151 64.3356C189.045 64.7789 188.66 65.0889 188.215 65.0889ZM269.38 64.4532C269.301 64.4532 269.225 64.4439 269.153 64.4251C268.901 64.3633 268.689 64.2049 268.555 63.9818C268.422 63.7556 268.382 63.4918 268.44 63.2378C268.58 62.6486 268.652 62.0408 268.652 61.4331C268.652 61.0207 268.619 60.6082 268.555 60.2022C268.513 59.9448 268.573 59.6844 268.725 59.4703C268.874 59.2562 269.098 59.1169 269.353 59.0732C269.874 58.9928 270.372 59.3585 270.457 59.8888C270.538 60.4005 270.578 60.9213 270.578 61.4331C270.578 62.1958 270.49 62.9587 270.314 63.6996C270.208 64.1431 269.823 64.4532 269.38 64.4532ZM266.333 55.5759C266.118 55.5759 265.914 55.5045 265.745 55.3678C264.895 54.6984 263.941 54.2333 262.904 53.9789L262.704 53.9292C262.603 53.9043 262.506 53.8796 262.406 53.8581C261.888 53.7309 261.569 53.1973 261.694 52.6704C261.797 52.2239 262.182 51.9138 262.628 51.9138C262.704 51.9138 262.779 51.9231 262.852 51.9416L262.958 51.9664C263.092 52.0007 263.222 52.0314 263.352 52.0628C264.656 52.3819 265.86 52.968 266.921 53.8114C267.157 53.9973 267.294 54.2795 267.297 54.5836C267.297 54.8067 267.227 55.0175 267.094 55.1944C266.912 55.4362 266.633 55.5759 266.333 55.5759ZM190.682 54.6951C190.604 54.6951 190.528 54.6859 190.452 54.6672C190.203 54.6051 189.991 54.447 189.858 54.2208C189.724 53.9973 189.682 53.7339 189.746 53.4766L190.71 49.4053C190.834 48.8874 191.362 48.5525 191.874 48.6798C192.311 48.7882 192.614 49.1882 192.608 49.6472C192.608 49.7214 192.599 49.7959 192.584 49.8705C192.435 50.4842 192.286 51.1167 192.135 51.7587C191.965 52.4719 191.792 53.1973 191.616 53.9417C191.51 54.385 191.128 54.6951 190.682 54.6951ZM256.442 52.3694C256.366 52.3694 256.29 52.3603 256.215 52.3415C255.136 52.0751 254.016 51.802 252.864 51.52L252.231 51.365C251.982 51.3029 251.77 51.1479 251.633 50.9214C251.5 50.6983 251.457 50.4349 251.518 50.1774C251.621 49.7338 252.006 49.4237 252.455 49.4237C252.531 49.4237 252.607 49.43 252.679 49.4486C253.38 49.6191 254.068 49.7899 254.744 49.9539C255.396 50.1153 256.036 50.2734 256.664 50.4254C257.103 50.5339 257.407 50.9307 257.403 51.3899C257.403 51.464 257.394 51.5386 257.376 51.613C257.273 52.0563 256.888 52.3694 256.442 52.3694ZM246.27 49.8765C246.194 49.8765 246.118 49.8673 246.042 49.8486L245.636 49.7496C244.46 49.4609 243.268 49.1697 242.061 48.8751C241.543 48.7479 241.224 48.2147 241.345 47.6875C241.452 47.2409 241.837 46.9308 242.282 46.9308C242.358 46.9308 242.434 46.9401 242.507 46.9588C243.259 47.1417 244.002 47.3247 244.741 47.5046C245.33 47.6503 245.912 47.7928 246.491 47.9355C246.931 48.0408 247.234 48.4378 247.231 48.8998C247.231 48.9744 247.222 49.0485 247.203 49.1201C247.1 49.5664 246.715 49.8765 246.27 49.8765ZM236.103 47.3867C236.024 47.3867 235.948 47.3774 235.875 47.3588C234.826 47.1015 233.774 46.8442 232.722 46.5868L231.891 46.385C231.643 46.323 231.43 46.1649 231.294 45.9417C231.161 45.7186 231.118 45.4518 231.179 45.1974C231.285 44.7511 231.67 44.441 232.116 44.441C232.192 44.441 232.268 44.4501 232.34 44.4689C233.493 44.7511 234.648 45.0333 235.8 45.3153L236.324 45.4454C236.764 45.5512 237.067 45.9478 237.064 46.4099C237.064 46.4843 237.055 46.5589 237.037 46.6331C236.931 47.0766 236.549 47.3867 236.103 47.3867ZM225.93 44.8968C225.855 44.8968 225.779 44.8873 225.703 44.869C225.063 44.7109 224.423 44.5558 223.79 44.4008C223.095 44.2299 222.404 44.0595 221.719 43.892C221.47 43.8299 221.258 43.672 221.125 43.4487C220.988 43.2255 220.949 42.9619 221.009 42.7045C221.112 42.2611 221.497 41.948 221.943 41.948C222.019 41.948 222.095 41.9572 222.171 41.9758L223.593 42.3262C224.439 42.5339 225.291 42.7417 226.149 42.9523H226.155C226.594 43.0612 226.898 43.4582 226.892 43.9168C226.892 43.9914 226.882 44.0658 226.867 44.14C226.761 44.5867 226.376 44.8968 225.93 44.8968ZM193.251 44.3324C193.12 44.3324 192.996 44.3045 192.878 44.2548C192.638 44.1525 192.456 43.9635 192.359 43.7186C192.259 43.4766 192.262 43.2069 192.362 42.9649C192.951 41.5326 193.885 40.2517 195.064 39.2628C195.234 39.1201 195.452 39.0396 195.673 39.0396C195.961 39.0396 196.234 39.1728 196.416 39.4023C196.559 39.5789 196.637 39.799 196.634 40.0285C196.634 40.3201 196.507 40.5959 196.286 40.7852V40.7882L196.262 40.8037C195.337 41.5883 194.603 42.599 194.136 43.7276C193.988 44.0937 193.639 44.3324 193.251 44.3324ZM215.758 42.4037C215.682 42.4037 215.606 42.3944 215.533 42.3759L214.542 42.1339C213.52 41.8829 212.52 41.6379 211.549 41.4021C211.298 41.3403 211.085 41.1819 210.952 40.9588C210.819 40.7326 210.776 40.4688 210.837 40.2148C210.94 39.7681 211.325 39.458 211.774 39.458C211.846 39.458 211.922 39.4674 211.998 39.4859C213.281 39.799 214.612 40.1248 215.982 40.4597C216.422 40.5681 216.725 40.9651 216.719 41.4269C216.719 41.5014 216.71 41.5759 216.695 41.6471C216.589 42.0937 216.203 42.4037 215.758 42.4037ZM205.585 39.9107C205.509 39.9107 205.434 39.9013 205.361 39.886L204.591 39.6966C203.966 39.5417 203.363 39.396 202.787 39.2533C202.368 39.151 201.941 39.0859 201.516 39.058C200.989 39.0238 200.582 38.5526 200.619 38.0131C200.652 37.4735 201.116 37.0549 201.64 37.0921C202.177 37.1264 202.714 37.21 203.235 37.3372C203.76 37.4673 204.305 37.6007 204.87 37.7402L205.809 37.9697C206.246 38.0752 206.552 38.472 206.546 38.9339C206.546 39.0083 206.537 39.0859 206.519 39.1573C206.416 39.6007 206.031 39.9107 205.585 39.9107Z" fill="#E6E93A"/>
<path d="M224.098 92.5674C222.846 93.4419 221.538 94.0621 220.173 94.4292C218.807 94.7961 217.526 94.8185 216.33 94.4964C215.016 94.1422 213.84 93.4056 212.802 92.2864C211.764 91.1672 211.067 89.6877 210.712 87.8485C210.357 86.0087 210.43 84.1155 210.932 82.1672C211.55 79.7665 212.771 77.5246 214.595 75.44C216.418 73.3556 218.379 71.9506 220.476 71.2238C222.574 70.497 224.464 70.3602 226.148 70.8131C227.432 71.1597 228.569 71.8324 229.559 72.8341C230.548 73.8352 231.283 75.1512 231.763 76.7821L233.42 73.4742L237.385 74.542L230.281 88.8806C229.294 90.8753 228.771 91.9855 228.713 92.2126C228.608 92.6202 228.669 93.0119 228.896 93.3874C229.122 93.7635 229.45 94.0088 229.878 94.1245C230.661 94.3353 231.805 94.1512 233.313 93.5721C235.307 92.8176 237.056 91.5567 238.561 89.7906C240.066 88.0247 241.097 86.062 241.653 83.9023C242.302 81.3812 242.278 78.8551 241.579 76.3254C240.88 73.7965 239.449 71.5375 237.284 69.5498C235.12 67.5629 232.524 66.1609 229.498 65.3457C226.043 64.4155 222.674 64.3918 219.391 65.2761C216.108 66.1597 213.283 67.9334 210.915 70.5983C208.548 73.2629 206.909 76.3613 205.999 79.8949C205.046 83.5941 205.012 86.9916 205.896 90.0875C206.78 93.184 208.546 95.7701 211.192 97.8479C213.839 99.9244 216.971 101.45 220.588 102.424C224.457 103.467 227.869 103.675 230.824 103.05C233.78 102.425 236.153 101.337 237.942 99.784L241.95 100.863C240.789 102.246 239.081 103.514 236.826 104.666C234.572 105.819 232.058 106.535 229.287 106.814C226.515 107.093 223.35 106.753 219.791 105.795C216.514 104.912 213.601 103.667 211.055 102.061C208.508 100.455 206.482 98.525 204.979 96.2709C203.475 94.0168 202.518 91.6317 202.109 89.1161C201.603 85.9281 201.776 82.6809 202.628 79.3742C203.576 75.6902 205.219 72.378 207.555 69.439C210.41 65.8319 213.775 63.3877 217.65 62.1062C221.524 60.8247 225.824 60.8199 230.549 62.0929C234.21 63.0788 237.302 64.7316 239.823 67.0487C242.345 69.3669 244.056 72.2703 244.958 75.7586C245.717 78.7564 245.702 81.7875 244.913 84.8532C243.785 89.2318 241.278 92.714 237.391 95.3007C233.918 97.6268 230.588 98.3601 227.398 97.5014C226.38 97.2271 225.597 96.8468 225.051 96.3604C224.505 95.8748 224.161 95.2975 224.017 94.629C223.922 94.2002 223.949 93.5128 224.098 92.5674ZM214.959 83.5432C214.426 85.612 214.492 87.3488 215.157 88.7546C215.82 90.1613 216.773 91.031 218.013 91.3653C218.84 91.5876 219.776 91.5694 220.822 91.3102C221.867 91.0511 222.936 90.535 224.026 89.7635C225.117 88.9913 226.126 87.9108 227.052 86.5216C227.978 85.1324 228.64 83.6668 229.037 82.1273C229.565 80.0736 229.477 78.3464 228.772 76.9456C228.068 75.5443 226.998 74.6515 225.567 74.2658C224.622 74.0113 223.669 74.0169 222.708 74.2827C221.747 74.5493 220.736 75.1197 219.673 75.9966C218.611 76.873 217.643 78.0255 216.77 79.4528C215.897 80.8809 215.294 82.2448 214.959 83.5432Z" fill="#E6E93A"/>
<path fill-rule="evenodd" clip-rule="evenodd" d="M197.185 92.8698C196.602 90.6527 195.179 88.7614 193.232 87.6167C191.284 86.4728 188.97 86.1687 186.802 86.7707C165.215 92.7706 106.909 108.978 85.3777 114.966C80.8817 116.215 78.2215 120.95 79.4301 125.551C84.9472 146.556 99.3865 201.529 104.918 222.59C105.5 224.807 106.923 226.698 108.871 227.842C110.819 228.986 113.132 229.29 115.3 228.689C136.888 222.689 195.194 206.481 216.725 200.494C221.221 199.244 223.88 194.509 222.674 189.907C217.156 168.903 202.716 113.93 197.185 92.8698Z" fill="black"/>
<path fill-rule="evenodd" clip-rule="evenodd" d="M188.692 107.633C188.109 105.413 186.686 103.521 184.739 102.376C182.79 101.233 180.477 100.928 178.309 101.531C160.383 106.514 117.824 118.345 99.9434 123.313C95.4476 124.566 92.7879 129.297 93.9966 133.899C98.5234 151.136 108.876 190.553 113.414 207.83C113.997 210.047 115.42 211.939 117.367 213.083C119.315 214.227 121.629 214.531 123.797 213.93C141.722 208.947 184.281 197.117 202.162 192.147C206.658 190.894 209.318 186.162 208.109 181.561C203.583 164.324 193.23 124.907 188.692 107.633Z" fill="black"/>
<path d="M121.579 215.744H121.579C119.844 215.743 118.132 215.277 116.629 214.394C114.358 213.06 112.665 210.811 111.984 208.223L92.5668 134.291C91.1507 128.9 94.2851 123.321 99.5533 121.853C113.132 118.081 140.94 110.35 161.386 104.666L177.92 100.07C180.444 99.3691 183.208 99.7337 185.474 101.064C187.746 102.4 189.439 104.651 190.119 107.24C194.657 124.514 205.01 163.931 209.536 181.168C210.952 186.558 207.818 192.138 202.549 193.606L124.183 215.389C123.334 215.624 122.458 215.744 121.579 215.744ZM180.525 102.74C179.907 102.74 179.292 102.824 178.695 102.99L162.162 107.586C141.716 113.269 113.908 121 100.33 124.772C96.6307 125.803 94.4292 129.721 95.4235 133.506L114.841 207.437C115.319 209.255 116.508 210.834 118.103 211.771C119.158 212.391 120.36 212.719 121.579 212.719H121.579C122.197 212.719 122.812 212.635 123.408 212.469L201.772 190.687C205.472 189.656 207.674 185.738 206.679 181.953C202.153 164.716 191.8 125.299 187.262 108.025C186.784 106.206 185.596 104.625 184 103.687C182.945 103.068 181.743 102.74 180.525 102.74Z" fill="#E6E93A"/>
<path d="M160.477 138.678C156.056 138.678 152.049 135.89 150.27 131.575C147.847 125.695 150.354 118.893 155.86 116.412C157.207 115.805 158.632 115.497 160.095 115.497C164.517 115.497 168.524 118.286 170.302 122.601C172.726 128.481 170.219 135.283 164.714 137.763C163.366 138.37 161.941 138.678 160.477 138.678ZM160.095 118.522C159.045 118.522 158.021 118.744 157.052 119.18C153.016 121 151.196 126.033 152.996 130.4C154.312 133.591 157.248 135.653 160.477 135.653C161.528 135.653 162.551 135.432 163.521 134.995C167.558 133.176 169.377 128.143 167.577 123.776C166.261 120.584 163.325 118.522 160.095 118.522Z" fill="#E6E93A"/>
<path d="M107.26 180.569L104.857 178.806L122.387 153.826C122.76 153.295 123.422 153.068 124.035 153.266L162.059 165.562L193.444 127.119L195.714 129.058L163.695 168.278C163.31 168.75 162.687 168.936 162.113 168.752L124.165 156.481L107.26 180.569Z" fill="#E6E93A"/>
<path fill-rule="evenodd" clip-rule="evenodd" d="M342.327 90.9437C341.918 88.6799 340.641 86.6771 338.783 85.3782C336.921 84.0815 334.635 83.5952 332.422 84.0287C321.346 86.203 301.91 90.0166 290.882 92.181C286.316 93.0774 283.314 97.5764 284.163 102.249C286.171 113.31 289.666 132.587 291.683 143.697C292.092 145.96 293.369 147.964 295.23 149.26C297.089 150.559 299.378 151.043 301.589 150.611C312.668 148.435 332.104 144.621 343.131 142.457C347.695 141.56 350.696 137.064 349.85 132.388C347.843 121.331 344.344 102.054 342.327 90.9437Z" fill="black"/>
<path d="M304.615 145.222C302.611 145.222 300.674 144.611 299.015 143.456C296.843 141.939 295.326 139.555 294.848 136.914L289.481 107.347C288.488 101.873 292.03 96.5665 297.376 95.5175C305.863 93.852 319.007 91.2725 327.53 89.5979C328.145 89.4771 328.774 89.416 329.4 89.416C331.408 89.416 333.345 90.0282 335.002 91.1871C337.168 92.6968 338.687 95.079 339.169 97.7208C340.697 106.138 343.014 118.913 344.533 127.294C345.527 132.767 341.985 138.074 336.638 139.124C328.154 140.789 315.007 143.368 306.487 145.04C305.871 145.161 305.241 145.222 304.615 145.222ZM329.4 92.441C328.961 92.441 328.519 92.4841 328.088 92.5687C319.565 94.243 306.421 96.8232 297.933 98.4886C294.179 99.2251 291.692 102.951 292.39 106.795L297.757 136.363C298.092 138.218 299.158 139.892 300.682 140.957C301.846 141.767 303.207 142.197 304.615 142.197C305.055 142.197 305.497 142.154 305.93 142.069C314.45 140.397 327.597 137.818 336.08 136.152C339.835 135.416 342.322 131.689 341.624 127.846C340.105 119.464 337.789 106.69 336.261 98.2744C335.923 96.4193 334.856 94.7463 333.334 93.6853C332.169 92.871 330.81 92.441 329.4 92.441Z" fill="#E6E93A"/>
<path d="M319.185 130.584C319.008 130.584 318.831 130.551 318.66 130.485C315.554 129.278 309.943 126.72 307.227 123.134C303.652 118.648 302.84 113.672 305.16 110.453C306.48 108.621 308.785 107.484 311.176 107.484C312.684 107.484 314.129 107.93 315.382 108.765C316.832 106.682 319.164 105.414 321.73 105.414C323.102 105.414 324.398 105.777 325.479 106.465C328.801 108.582 329.848 113.513 328.149 119.032C326.926 123.385 322.636 127.887 320.185 130.186C319.907 130.446 319.549 130.584 319.185 130.584ZM311.176 110.509C309.729 110.509 308.302 111.191 307.541 112.248C306.092 114.258 306.91 117.955 309.531 121.236C309.539 121.247 309.548 121.258 309.556 121.269C311.112 123.333 314.475 125.514 318.856 127.315C322.277 123.981 324.613 120.683 325.31 118.182C325.313 118.168 325.318 118.154 325.322 118.141C326.57 114.101 325.992 110.356 323.915 109.034C323.313 108.65 322.537 108.439 321.73 108.439C320.132 108.439 318.1 109.283 317.194 111.653C317.009 112.136 316.594 112.489 316.096 112.587C315.596 112.685 315.084 112.514 314.737 112.135C313.506 110.791 312.121 110.509 311.176 110.509Z" fill="#E6E93A"/>
<path fill-rule="evenodd" clip-rule="evenodd" d="M362.043 221.938C362.759 218.859 360.9 215.768 357.889 215.036C329.321 208.066 197.07 175.811 168.487 168.841C167.04 168.487 165.515 168.739 164.249 169.536C162.982 170.332 162.077 171.61 161.733 173.092C155.556 199.644 129.139 313.202 121.871 344.449C121.45 346.259 121.914 348.165 123.115 349.562C124.317 350.959 126.107 351.673 127.915 351.476C201.598 343.602 259.155 367.893 313.915 397.763C315.446 398.6 317.275 398.663 318.857 397.933C320.443 397.203 321.607 395.763 322.007 394.033C329.027 363.867 355.818 248.691 362.043 221.938Z" fill="black"/>
<path d="M274.12 289.169C275.197 287.967 273.759 287.831 273.191 287.437C263.829 280.973 252.638 274.373 257.315 259.829C265.32 234.929 302.614 249.13 293.507 278.504C282.958 312.524 219.672 306.029 196.457 291.364C194.334 290.023 185.422 283.459 184.326 281.848C181.894 278.272 185.257 273.435 188.911 274.517C190.17 274.89 197.526 281.938 200.075 283.586C219.44 296.091 244.495 297.492 266.036 291.77C267.204 291.461 273.832 289.5 274.123 289.172L274.12 289.169ZM272.494 255.105C267.447 256.004 262.976 262.811 264.33 268.194C265.544 273.016 278.163 283.186 282.309 282.07C284.976 281.354 287.279 272.175 287.175 269.378C286.898 261.888 279.73 253.818 272.494 255.105Z" fill="#E6E93A"/>
<path d="M263.074 220.06C271.429 218.196 273.564 233.179 263.642 232.418C256.812 231.895 256.733 221.473 263.074 220.06Z" fill="#E6E93A"/>
<path d="M212.436 227.848C219.515 226.855 222.097 238.883 214.361 240.122C205.886 241.478 205.066 228.879 212.436 227.848Z" fill="#E6E93A"/>
<path d="M176.564 340.152C175.999 339.942 175.75 339.56 175.753 338.913C175.764 334.662 175.775 330.41 175.789 326.158C174.673 325.93 173.553 325.689 172.437 325.431C171.866 325.299 171.617 324.967 171.617 324.354V321.381C171.617 320.767 171.869 320.539 172.44 320.632C176.466 321.293 180.492 321.778 184.518 322.12C185.089 322.168 185.338 322.505 185.335 323.227C185.327 324.39 185.322 325.554 185.313 326.718C185.308 327.44 185.056 327.725 184.485 327.644C183.366 327.488 182.247 327.319 181.13 327.136C181.105 331.661 181.083 336.183 181.057 340.709C181.055 341.4 180.803 341.626 180.235 341.436C179.009 341.03 177.787 340.603 176.567 340.152H176.564Z" fill="#E6E93A"/>
<path d="M190.324 344.278C189.207 344.017 188.091 343.74 186.977 343.443C186.41 343.292 186.16 342.902 186.166 342.173C186.183 339.612 186.2 337.05 186.219 334.489C186.228 333.322 186.51 331.923 187.14 329.957C187.817 327.828 188.497 325.654 189.177 323.435C189.364 322.761 189.733 322.482 190.352 322.512C192.403 322.617 194.454 322.689 196.504 322.732C197.1 322.744 197.461 323.069 197.64 323.805C198.284 326.234 198.927 328.694 199.574 331.178C200.173 333.478 200.436 335.132 200.424 336.431C200.402 339.293 200.38 342.153 200.357 345.015C200.352 345.827 200.097 346.149 199.523 346.062C198.374 345.881 197.224 345.689 196.074 345.475C195.458 345.361 195.187 344.961 195.192 344.179C195.203 342.715 195.215 341.25 195.226 339.783C193.877 339.579 192.531 339.357 191.186 339.109C191.174 340.529 191.163 341.948 191.152 343.371C191.146 344.131 190.895 344.411 190.324 344.276V344.278ZM191.454 333.607C192.649 333.769 193.844 333.914 195.041 334.046C194.697 332.42 194.35 330.801 194.003 329.196C193.891 328.815 193.757 328.649 193.572 328.634C193.382 328.619 193.192 328.604 193.001 328.586C192.82 328.571 192.68 328.712 192.562 329.07C192.193 330.595 191.823 332.107 191.454 333.601L191.454 333.607Z" fill="#E6E93A"/>
<path d="M203.568 346.629C202.995 346.557 202.746 346.16 202.754 345.336C202.765 344.049 202.774 342.762 202.785 341.476C202.79 340.652 203.045 340.312 203.619 340.363C205.672 340.543 207.726 340.685 209.78 340.787C210.169 340.805 210.379 340.369 210.381 339.822C210.387 339.034 210.183 338.718 209.794 338.634C208.649 338.349 207.505 338.057 206.364 337.756C204.215 337.158 202.83 335.727 202.858 332.043C202.866 330.888 202.874 329.734 202.886 328.579C202.914 324.829 204.693 322.783 207.665 322.695C209.799 322.641 211.934 322.563 214.069 322.463C214.64 322.436 214.889 322.809 214.886 323.681C214.878 325.068 214.869 326.451 214.861 327.836C214.855 328.709 214.601 329.099 214.03 329.111C212.25 329.148 210.474 329.166 208.694 329.163C208.305 329.163 208.073 329.568 208.07 330.179C208.065 330.79 208.291 331.201 208.68 331.273C209.816 331.514 210.952 331.749 212.088 331.977C214.237 332.455 215.65 333.832 215.628 337.762C215.619 338.989 215.614 340.216 215.605 341.44C215.583 345.439 213.775 347.556 210.815 347.336C208.398 347.162 205.983 346.93 203.571 346.629L203.568 346.629Z" fill="#E6E93A"/>
<path d="M221.929 347.739C221.352 347.739 221.103 347.342 221.106 346.452C221.134 340.616 221.165 334.779 221.193 328.946C220.071 328.997 218.949 329.039 217.827 329.079C217.253 329.096 217.004 328.718 217.01 327.837C217.018 326.417 217.027 324.998 217.035 323.579C217.041 322.701 217.295 322.298 217.866 322.268C221.892 322.042 225.918 321.754 229.945 321.441C230.516 321.396 230.767 321.778 230.765 322.686C230.762 324.153 230.756 325.62 230.753 327.088C230.753 327.999 230.499 328.414 229.925 328.453C228.803 328.528 227.678 328.6 226.556 328.666C226.534 334.578 226.512 340.489 226.489 346.401C226.486 347.303 226.232 347.706 225.656 347.718C224.413 347.739 223.171 347.748 221.929 347.745L221.929 347.739Z" fill="#E6E93A"/>
<path d="M233.757 347.417C233.181 347.447 232.929 347.059 232.932 346.148C232.948 338.267 232.965 330.389 232.982 322.509C232.982 321.597 233.237 321.176 233.807 321.128C237.344 320.837 240.883 320.533 244.42 320.232C244.994 320.184 245.242 320.566 245.245 321.48C245.245 322.908 245.248 324.334 245.251 325.762C245.251 326.676 244.999 327.103 244.428 327.151C242.322 327.334 240.212 327.515 238.102 327.689V330.509C239.593 330.389 241.085 330.263 242.573 330.133C243.147 330.083 243.398 330.465 243.398 331.381V335.3C243.398 336.214 243.147 336.64 242.573 336.692C241.079 336.824 239.588 336.947 238.094 337.061V340.209C240.209 340.047 242.324 339.867 244.44 339.671C245.016 339.617 245.268 339.996 245.268 340.91C245.268 342.338 245.271 343.766 245.273 345.192C245.273 346.106 245.021 346.536 244.445 346.59C240.883 346.93 237.322 347.213 233.76 347.408L233.757 347.417Z" fill="#E6E93A"/>
<path d="M248.817 346.151C248.241 346.215 247.989 345.839 247.986 344.924C247.972 337.035 247.958 329.142 247.947 321.252C247.947 320.338 248.196 319.917 248.767 319.869C251.201 319.667 253.633 319.475 256.064 319.297C259.061 319.081 260.462 320.711 260.482 324.457C260.482 325.028 260.488 325.6 260.49 326.171C260.502 328.171 260.071 329.461 259.155 330.159C261.128 330.257 262.054 331.914 262.071 335.396C262.077 336.487 262.082 337.579 262.088 338.668C262.107 342.646 260.717 344.693 257.656 345.093C254.71 345.472 251.764 345.827 248.817 346.148L248.817 346.151ZM253.121 329.611C253.77 329.551 254.418 329.488 255.07 329.427C255.666 329.37 255.941 328.874 255.938 327.903C255.938 327.566 255.938 327.229 255.935 326.892C255.932 325.918 255.656 325.473 255.06 325.525C254.41 325.582 253.761 325.639 253.112 325.696C253.115 327.001 253.121 328.309 253.123 329.617L253.121 329.611ZM253.151 339.482C254.147 339.374 255.144 339.263 256.14 339.149C256.735 339.079 257.01 338.58 257.007 337.609C257.007 337.14 257.004 336.671 257.001 336.205C256.998 335.234 256.722 334.828 256.123 334.891C255.127 334.996 254.134 335.099 253.138 335.2C253.143 336.629 253.146 338.057 253.151 339.482Z" fill="#E6E93A"/>
<path d="M271.654 343.676C265.96 344.524 264.541 341.809 264.516 337.494C264.483 331.667 264.452 325.843 264.418 320.016C264.413 319.131 264.665 318.729 265.235 318.698C266.432 318.633 267.63 318.572 268.828 318.518C269.401 318.494 269.653 318.864 269.659 319.73C269.692 324.995 269.729 330.263 269.762 335.528C269.768 336.463 270.047 337.124 271.654 336.935C273.282 336.742 273.551 336.03 273.545 335.11C273.508 329.929 273.472 324.748 273.436 319.571C273.43 318.719 273.654 318.334 274.25 318.32C275.408 318.286 276.566 318.262 277.728 318.245C278.299 318.236 278.553 318.599 278.562 319.429C278.604 324.908 278.645 330.386 278.688 335.864C278.718 339.9 277.348 342.825 271.656 343.683L271.654 343.676Z" fill="#E6E93A"/>
<path d="M282.598 341.578C282.027 341.659 281.773 341.337 281.765 340.522C281.709 333.477 281.656 326.429 281.6 319.384C281.594 318.57 281.843 318.209 282.414 318.211C284.982 318.221 287.554 318.272 290.122 318.377C293.966 318.558 295.762 320.62 295.791 324.664C295.81 327.713 295.832 330.759 295.855 333.808C295.883 337.861 294.123 339.978 290.295 340.51C287.736 340.853 285.17 341.214 282.598 341.578ZM286.915 335.007C287.822 334.92 288.729 334.836 289.633 334.755C290.363 334.689 290.701 334.199 290.693 333.158C290.673 330.678 290.654 328.197 290.637 325.713C290.629 324.703 290.281 324.246 289.551 324.249C288.645 324.258 287.738 324.27 286.832 324.288C286.859 327.861 286.888 331.433 286.915 335.005L286.915 335.007Z" fill="#E6E93A"/>
<path d="M299.188 339.389C298.62 339.455 298.368 339.173 298.363 338.453C298.355 337.338 298.349 336.223 298.34 335.104C298.335 334.389 298.584 334.058 299.152 334.022C301.191 333.896 303.228 333.787 305.266 333.706C305.651 333.691 305.856 333.342 305.853 332.918C305.853 332.314 305.646 332.08 305.26 332.034C304.123 331.872 302.985 331.709 301.847 331.547C299.706 331.228 298.31 330.134 298.287 326.916C298.282 325.915 298.276 324.914 298.268 323.913C298.246 320.636 299.997 318.99 302.971 319.349C305.106 319.592 307.241 319.883 309.376 320.22C309.949 320.313 310.198 320.626 310.201 321.249V324.207C310.201 324.83 309.952 325.076 309.381 325.022C307.61 324.857 305.839 324.718 304.068 324.61C303.679 324.586 303.452 324.899 303.455 325.386C303.455 325.873 303.687 326.21 304.074 326.279C305.206 326.507 306.34 326.739 307.47 326.971C309.613 327.458 311.021 328.543 311.021 331.282V333.862C311.021 336.64 309.261 338.303 306.345 338.61C303.961 338.841 301.575 339.103 299.182 339.383L299.188 339.389Z" fill="#E6E93A"/>
<mask id="mask1_361_2229" style="mask-type:luminance" maskUnits="userSpaceOnUse" x="64" y="145" width="313" height="315">
<path d="M376.588 254.453C376.928 250.332 375.148 246.327 371.888 243.879C349.675 227.2 263.594 162.555 243.24 147.266C240.575 145.266 237.045 144.931 234.065 146.401C211.045 157.762 112.712 206.276 87.3811 218.775C83.6804 220.602 81.1979 224.292 80.8526 228.478C78.347 258.868 68.1007 383.126 64.8797 422.195C64.3409 428.723 69.0737 434.466 75.4565 435.029C122.673 439.196 300.731 454.91 348.032 459.084C351.106 459.355 354.159 458.365 356.519 456.332C358.877 454.299 360.348 451.39 360.606 448.246C363.838 409.073 374.099 284.62 376.588 254.453Z" fill="white"/>
</mask>
<g mask="url(#mask1_361_2229)">
<path fill-rule="evenodd" clip-rule="evenodd" d="M54.6836 454.876L372.59 475.883L391.741 261.945L228.348 334.025L71.2624 227.24L54.6836 454.876Z" fill="white"/>
<path fill-rule="evenodd" clip-rule="evenodd" d="M19.3086 455.147L229.99 333.995L452.309 516.687L19.3086 455.147Z" fill="#E2E2E2"/>
</g>
</g>
<path d="M75.8383 391C74.6716 438.667 150.038 526.5 290.838 432.5C466.838 315 505.838 90 332.338 41.5C158.838 -6.99997 24.8379 111 7.83794 245.5C-9.16206 380 29.8379 454 134.338 422.5" stroke="black" stroke-width="8"/>
</svg>
